<?xml version="1.0" encoding="utf-8"?>
<!-- Generator: Adobe Illustrator 23.0.2, SVG Export Plug-In . SVG Version: 6.00 Build 0)  -->
<svg version="1.1" id="图层_1" xmlns="http://www.w3.org/2000/svg" xmlns:xlink="http://www.w3.org/1999/xlink" x="0px" y="0px"
	 viewBox="0 0 512 512" style="enable-background:new 0 0 512 512;" xml:space="preserve">
<style type="text/css">
	.st0{fill:#3385FF;}
	.st1{fill:#FF6666;}
</style>
<g>
	<path class="st0" d="M250.6,32.2C131.8,35,34.9,131.8,32.1,250.6c-3,126.2,98.4,229.3,224,229.3c60.3,0,114.9-23.8,155.1-62.5
		c1.6-1.6,4.4-1.6,6.1,0l56.7,56.7c2.1,2.1,5.8,0.6,5.8-2.4V265.5c0.1-3.1,0.3-6.4,0.3-9.5C479.9,130.6,376.7,29.1,250.6,32.2z
		 M354.3,378.8c-6.2,0-12.4-2.4-17.1-7.1l-3.5-3.5c-1-1-2.8-1.3-4.1-0.4c-21.1,13.9-46.2,22-73.4,22c-70.6,0-129.9-56.1-133.4-126.8
		c-4-79.2,61-144.3,140.3-140.3c70.6,3.5,126.9,62.9,126.8,133.7c0,27.2-8.3,52.4-22.2,73.4c-0.9,1.3-0.7,3.1,0.4,4.1l3.5,3.5
		c1,1,1.9,2.2,2.8,3.4c6.5,9.5,5.6,22.5-2.8,30.9l0,0C366.7,376.4,360.5,378.8,354.3,378.8z"/>
	<path class="st1" d="M261.2,177.4c-49.8-3.1-90.7,37.8-87.6,87.6c2.5,42,37.2,75.6,79.2,77.3c14.5,0.6,28.1-2.7,40.2-8.7
		c2.1-1,2.5-3.7,0.9-5.3l-0.7-0.7c-9.2-9.2-10.2-23.9-1.6-33.7c9.3-10.6,25.6-11.1,35.3-1.2c1.6,1.6,4.4,1,5.5-1
		c4.7-11.5,7.1-24.2,6.2-37.7C335.5,213.2,302.3,180,261.2,177.4z"/>
</g>
</svg>
