<?xml version="1.0" encoding="utf-8"?>
<!-- Generator: Adobe Illustrator 23.0.2, SVG Export Plug-In . SVG Version: 6.00 Build 0)  -->
<svg version="1.1" id="图层_1" xmlns="http://www.w3.org/2000/svg" xmlns:xlink="http://www.w3.org/1999/xlink" x="0px" y="0px"
	 viewBox="0 0 1024 327.2" style="enable-background:new 0 0 1024 327.2;" xml:space="preserve">
<style type="text/css">
	.st0{fill:#3385FF;}
	.st1{fill:#FF6666;}
	.st2{fill:#262D35;}
</style>
<g>
	<path class="st0" d="M164.3,12.1C83.9,14,18.3,79.5,16.4,159.9C14.4,245.3,83,315.1,168,315.1c40.8,0,77.8-16.1,105-42.3
		c1.1-1.1,3-1.1,4.1,0l38.4,38.4c1.4,1.4,3.9,0.4,3.9-1.6V170c0.1-2.1,0.2-4.3,0.2-6.4C319.5,78.7,249.7,10,164.3,12.1z
		 M234.5,246.7c-4.2,0-8.4-1.6-11.6-4.8l-2.4-2.4c-0.7-0.7-1.9-0.9-2.8-0.3c-14.3,9.4-31.3,14.9-49.7,14.9
		c-47.8,0-87.9-38-90.3-85.8c-2.7-53.6,41.3-97.7,95-95c47.8,2.4,85.9,42.6,85.8,90.5c0,18.4-5.6,35.5-15,49.7
		c-0.6,0.9-0.5,2.1,0.3,2.8l2.4,2.4c0.7,0.7,1.3,1.5,1.9,2.3c4.4,6.4,3.8,15.2-1.9,20.9l0,0C242.9,245.1,238.7,246.7,234.5,246.7z"
		/>
	<path class="st1" d="M171.5,110.4c-33.7-2.1-61.4,25.6-59.3,59.3c1.7,28.4,25.2,51.2,53.6,52.3c9.8,0.4,19-1.8,27.2-5.9
		c1.4-0.7,1.7-2.5,0.6-3.6l-0.5-0.5c-6.2-6.2-6.9-16.2-1.1-22.8c6.3-7.2,17.3-7.5,23.9-0.8c1.1,1.1,3,0.7,3.7-0.7
		c3.2-7.8,4.8-16.4,4.2-25.5C221.8,134.6,199.3,112.1,171.5,110.4z"/>
	<g>
		<g>
			<path class="st2" d="M674.5,114.6l9.9,14.3h-33.3l-10.8-14.3h-6l-11.7,17.7h-32.4l31.1-49.7h32.4l-5.2,7.8h46.2v3.9
				C694.8,105.5,685.7,114.6,674.5,114.6L674.5,114.6z M598.5,177.3v-25.9l96.8-21.6l95,21.2v26.8l-18.6-4.3v1.3
				c0,11.2-9.1,20.3-20.3,20.3H617.1v-21.6L598.5,177.3z M603.2,203.6h184v40.6c0,14.4-11.7,26.1-26.1,26.1H603.2V203.6z M754,169.5
				l-58.8-13.4l-61.3,13.4H754z M635.2,243.4h113.6c3.6,0,6.5-2.9,6.5-6.5v-7.4H635.2V243.4z M773.9,114.6l11.2,13.8h-34.6l-13-13.8
				h-8.6l-7.3,12.5h-32.4l24.6-44.5h35l-5.2,7.8h51v3.9c0,11.2-9.1,20.3-20.3,20.3H773.9z"/>
			<path class="st2" d="M845.2,133.9v68.6c0,13.1-1.3,26.1-3.7,38.9l-5.8,29.7h-32l6.1-33.3c2.2-12.2,3.4-24.6,3.4-37v-69.1
				c0-21.4,17.4-38.8,38.8-38.8h45.9l-3.5-10.4h35.9l3.9,10.4h73.4v9.1c0,11.2-9.1,20.3-20.3,20.3H856.7
				C850.3,122.4,845.2,127.6,845.2,133.9z M916.4,186.8v-13h31.1v13h51v8.2c0,11.2-9.1,20.3-20.3,20.3h-30.7v11.7h57.9v8.2
				c0,11.2-9.1,20.3-20.3,20.3h-37.6v15.8h-31.1v-15.8h-64.8v-28.5h64.8v-11.7h-45.9c-9.8,0-16.1-10.2-11.9-19l14.1-29h-20.3v-28.5
				h32.8l4.8-10.8h33.7l-4.8,10.8h85.5v8.2c0,11.2-9.1,20.3-20.3,20.3h-77.3l-8.6,19.4H916.4z"/>
			<g>
				<path class="st2" d="M381.8,129.3h31.1v120.9c0,11.6-9.4,21-21,21h-10.1V129.3z M499,235.6h-64.1v-95h87.3v71.8
					C522.2,225.2,511.8,235.6,499,235.6z M448.8,116.4V87h127.9v156.5c0,15.4-12.4,27.8-27.8,27.8h-28.4v-28.7h16.2
					c4.9,0,8.8-4,8.8-8.8V116.4H448.8z M466,169.9v36.3h22c1.7,0,3.1-1.4,3.1-3.1v-33.2H466z"/>
				<rect x="381.8" y="87.4" class="st2" width="50.9" height="29"/>
			</g>
		</g>
	</g>
</g>
</svg>
